<mxfile host="app.diagrams.net" modified="2022-11-02T04:27:09.601Z" agent="5.0 (Windows NT 10.0; Win64; x64) AppleWebKit/537.36 (KHTML, like Gecko) Chrome/106.0.0.0 Safari/537.36" etag="1HQrzztyVLWtnZSW_0rI" version="20.5.1" type="github">
  <diagram id="6C9Wx9oaCZobf0X31-SQ" name="Page-1">
    <mxGraphModel dx="1422" dy="727" grid="1" gridSize="10" guides="1" tooltips="1" connect="1" arrows="1" fold="1" page="1" pageScale="1" pageWidth="850" pageHeight="1100" math="0" shadow="0">
      <root>
        <mxCell id="0" />
        <mxCell id="1" parent="0" />
        <mxCell id="KNtuTVFXSeaUnAQqJgxQ-1" value="Jenkins Server" style="whiteSpace=wrap;html=1;aspect=fixed;" vertex="1" parent="1">
          <mxGeometry x="60" y="140" width="160" height="160" as="geometry" />
        </mxCell>
        <mxCell id="KNtuTVFXSeaUnAQqJgxQ-2" value="" style="shape=flexArrow;endArrow=classic;startArrow=classic;html=1;rounded=0;exitX=1.013;exitY=0.913;exitDx=0;exitDy=0;exitPerimeter=0;entryX=-0.038;entryY=0.811;entryDx=0;entryDy=0;entryPerimeter=0;" edge="1" parent="1" source="KNtuTVFXSeaUnAQqJgxQ-1" target="KNtuTVFXSeaUnAQqJgxQ-3">
          <mxGeometry width="100" height="100" relative="1" as="geometry">
            <mxPoint x="220" y="300" as="sourcePoint" />
            <mxPoint x="440" y="292.1428571428571" as="targetPoint" />
          </mxGeometry>
        </mxCell>
        <mxCell id="KNtuTVFXSeaUnAQqJgxQ-3" value="EC2 Instance" style="rounded=0;whiteSpace=wrap;html=1;" vertex="1" parent="1">
          <mxGeometry x="440" y="140" width="130" height="180" as="geometry" />
        </mxCell>
        <mxCell id="KNtuTVFXSeaUnAQqJgxQ-5" style="edgeStyle=orthogonalEdgeStyle;rounded=0;orthogonalLoop=1;jettySize=auto;html=1;" edge="1" parent="1" source="KNtuTVFXSeaUnAQqJgxQ-4">
          <mxGeometry relative="1" as="geometry">
            <mxPoint x="510" y="40" as="targetPoint" />
          </mxGeometry>
        </mxCell>
        <mxCell id="KNtuTVFXSeaUnAQqJgxQ-7" style="edgeStyle=orthogonalEdgeStyle;rounded=0;orthogonalLoop=1;jettySize=auto;html=1;entryX=1.013;entryY=0.119;entryDx=0;entryDy=0;entryPerimeter=0;" edge="1" parent="1" source="KNtuTVFXSeaUnAQqJgxQ-4" target="KNtuTVFXSeaUnAQqJgxQ-1">
          <mxGeometry relative="1" as="geometry" />
        </mxCell>
        <mxCell id="KNtuTVFXSeaUnAQqJgxQ-8" style="edgeStyle=orthogonalEdgeStyle;rounded=0;orthogonalLoop=1;jettySize=auto;html=1;exitX=0.5;exitY=1;exitDx=0;exitDy=0;entryX=0;entryY=0;entryDx=0;entryDy=0;" edge="1" parent="1" source="KNtuTVFXSeaUnAQqJgxQ-4" target="KNtuTVFXSeaUnAQqJgxQ-3">
          <mxGeometry relative="1" as="geometry" />
        </mxCell>
        <mxCell id="KNtuTVFXSeaUnAQqJgxQ-4" value="Forked Rep from Kura" style="rounded=0;whiteSpace=wrap;html=1;" vertex="1" parent="1">
          <mxGeometry x="280" width="120" height="70" as="geometry" />
        </mxCell>
        <mxCell id="KNtuTVFXSeaUnAQqJgxQ-6" value="GitHubDeeeee" style="rounded=0;whiteSpace=wrap;html=1;" vertex="1" parent="1">
          <mxGeometry x="530" y="20" width="120" height="60" as="geometry" />
        </mxCell>
        <mxCell id="KNtuTVFXSeaUnAQqJgxQ-15" style="edgeStyle=orthogonalEdgeStyle;rounded=0;orthogonalLoop=1;jettySize=auto;html=1;exitX=0.25;exitY=0;exitDx=0;exitDy=0;entryX=0.963;entryY=0.981;entryDx=0;entryDy=0;entryPerimeter=0;" edge="1" parent="1" source="KNtuTVFXSeaUnAQqJgxQ-10" target="KNtuTVFXSeaUnAQqJgxQ-1">
          <mxGeometry relative="1" as="geometry" />
        </mxCell>
        <mxCell id="KNtuTVFXSeaUnAQqJgxQ-20" style="edgeStyle=orthogonalEdgeStyle;rounded=0;orthogonalLoop=1;jettySize=auto;html=1;exitX=0.5;exitY=1;exitDx=0;exitDy=0;entryX=0.5;entryY=-0.03;entryDx=0;entryDy=0;entryPerimeter=0;" edge="1" parent="1" source="KNtuTVFXSeaUnAQqJgxQ-10" target="KNtuTVFXSeaUnAQqJgxQ-18">
          <mxGeometry relative="1" as="geometry" />
        </mxCell>
        <mxCell id="KNtuTVFXSeaUnAQqJgxQ-10" value="Terraform" style="rounded=1;arcSize=10;dashed=0;fillColor=none;gradientColor=none;strokeWidth=2;" vertex="1" parent="1">
          <mxGeometry x="270" y="330" width="200" height="200" as="geometry" />
        </mxCell>
        <mxCell id="KNtuTVFXSeaUnAQqJgxQ-11" value="" style="dashed=0;html=1;shape=mxgraph.aws3.cloud;fillColor=#F58536;gradientColor=none;dashed=0;" vertex="1" parent="1">
          <mxGeometry x="340" y="260" width="52" height="36" as="geometry" />
        </mxCell>
        <mxCell id="KNtuTVFXSeaUnAQqJgxQ-16" value="" style="rounded=1;arcSize=10;dashed=0;fillColor=none;gradientColor=none;strokeWidth=2;" vertex="1" parent="1">
          <mxGeometry x="320" y="160" width="200" height="200" as="geometry" />
        </mxCell>
        <mxCell id="KNtuTVFXSeaUnAQqJgxQ-17" value="" style="dashed=0;html=1;shape=mxgraph.aws3.virtual_private_cloud;fillColor=#F58536;gradientColor=none;dashed=0;" vertex="1" parent="1">
          <mxGeometry x="340" y="140" width="52" height="36" as="geometry" />
        </mxCell>
        <mxCell id="KNtuTVFXSeaUnAQqJgxQ-18" value="" style="rounded=1;arcSize=10;dashed=0;fillColor=none;gradientColor=none;strokeWidth=2;" vertex="1" parent="1">
          <mxGeometry x="270" y="600" width="200" height="200" as="geometry" />
        </mxCell>
        <mxCell id="KNtuTVFXSeaUnAQqJgxQ-19" value="" style="dashed=0;html=1;shape=mxgraph.aws3.virtual_private_cloud;fillColor=#F58536;gradientColor=none;dashed=0;" vertex="1" parent="1">
          <mxGeometry x="290" y="580" width="52" height="36" as="geometry" />
        </mxCell>
        <mxCell id="KNtuTVFXSeaUnAQqJgxQ-21" value="Creation of new VPC resources" style="text;html=1;align=center;verticalAlign=middle;resizable=0;points=[];autosize=1;strokeColor=none;fillColor=none;" vertex="1" parent="1">
          <mxGeometry x="370" y="550" width="190" height="30" as="geometry" />
        </mxCell>
      </root>
    </mxGraphModel>
  </diagram>
</mxfile>
